<mxfile host="app.diagrams.net" agent="Mozilla/5.0 (Windows NT 10.0; Win64; x64) AppleWebKit/537.36 (KHTML, like Gecko) Chrome/122.0.0.0 Safari/537.36" version="24.8.4" pages="3">
  <diagram id="18PZGGlNksj8WuRZRP3B" name="ДВИ 1">
    <mxGraphModel dx="1050" dy="555" grid="1" gridSize="10" guides="1" tooltips="1" connect="1" arrows="1" fold="1" page="1" pageScale="1" pageWidth="827" pageHeight="1169" math="0" shadow="0">
      <root>
        <mxCell id="0" />
        <mxCell id="1" parent="0" />
        <mxCell id="5dLB19G0BaNdC_t_m96H-2" value="Персонал" style="shape=umlActor;verticalLabelPosition=bottom;verticalAlign=top;html=1;" vertex="1" parent="1">
          <mxGeometry x="80" y="305" width="30" height="60" as="geometry" />
        </mxCell>
        <mxCell id="5dLB19G0BaNdC_t_m96H-3" value="Администратор" style="shape=umlActor;verticalLabelPosition=bottom;verticalAlign=top;html=1;" vertex="1" parent="1">
          <mxGeometry x="80" y="120" width="30" height="60" as="geometry" />
        </mxCell>
        <mxCell id="5dLB19G0BaNdC_t_m96H-4" value="Администрировать&lt;div&gt;услуги и бонусы&lt;/div&gt;" style="ellipse;whiteSpace=wrap;html=1;" vertex="1" parent="1">
          <mxGeometry x="190" y="115" width="140" height="70" as="geometry" />
        </mxCell>
        <mxCell id="5dLB19G0BaNdC_t_m96H-5" value="" style="endArrow=none;endFill=0;endSize=12;html=1;rounded=0;entryX=0;entryY=0.5;entryDx=0;entryDy=0;" edge="1" parent="1" target="5dLB19G0BaNdC_t_m96H-4">
          <mxGeometry width="160" relative="1" as="geometry">
            <mxPoint x="120" y="149.57" as="sourcePoint" />
            <mxPoint x="200" y="180" as="targetPoint" />
          </mxGeometry>
        </mxCell>
        <mxCell id="5dLB19G0BaNdC_t_m96H-6" value="CRUD&lt;div&gt;услуги&lt;/div&gt;" style="ellipse;whiteSpace=wrap;html=1;" vertex="1" parent="1">
          <mxGeometry x="410" y="30" width="140" height="70" as="geometry" />
        </mxCell>
        <mxCell id="5dLB19G0BaNdC_t_m96H-7" value="CRUD&lt;div&gt;бонусы&lt;/div&gt;" style="ellipse;whiteSpace=wrap;html=1;" vertex="1" parent="1">
          <mxGeometry x="410" y="115" width="140" height="70" as="geometry" />
        </mxCell>
        <mxCell id="5dLB19G0BaNdC_t_m96H-8" value="Назначать бонус участнику" style="ellipse;whiteSpace=wrap;html=1;" vertex="1" parent="1">
          <mxGeometry x="410" y="200" width="140" height="70" as="geometry" />
        </mxCell>
        <mxCell id="5dLB19G0BaNdC_t_m96H-9" value="«extends»" style="endArrow=open;endSize=12;dashed=1;html=1;rounded=0;entryX=1;entryY=1;entryDx=0;entryDy=0;exitX=0;exitY=0.5;exitDx=0;exitDy=0;" edge="1" parent="1" source="5dLB19G0BaNdC_t_m96H-8" target="5dLB19G0BaNdC_t_m96H-4">
          <mxGeometry width="160" relative="1" as="geometry">
            <mxPoint x="400.5" y="230" as="sourcePoint" />
            <mxPoint x="289.9974746830567" y="290.25126265847155" as="targetPoint" />
          </mxGeometry>
        </mxCell>
        <mxCell id="5dLB19G0BaNdC_t_m96H-10" value="«extends»" style="endArrow=open;endSize=12;dashed=1;html=1;rounded=0;exitX=0;exitY=0.5;exitDx=0;exitDy=0;entryX=1;entryY=0.5;entryDx=0;entryDy=0;" edge="1" parent="1" source="5dLB19G0BaNdC_t_m96H-7" target="5dLB19G0BaNdC_t_m96H-4">
          <mxGeometry width="160" relative="1" as="geometry">
            <mxPoint x="520" y="160" as="sourcePoint" />
            <mxPoint x="360" y="160" as="targetPoint" />
          </mxGeometry>
        </mxCell>
        <mxCell id="5dLB19G0BaNdC_t_m96H-11" value="«extends»" style="endArrow=open;endSize=12;dashed=1;html=1;rounded=0;exitX=0;exitY=0.5;exitDx=0;exitDy=0;entryX=0.938;entryY=0.256;entryDx=0;entryDy=0;entryPerimeter=0;" edge="1" parent="1" source="5dLB19G0BaNdC_t_m96H-6" target="5dLB19G0BaNdC_t_m96H-4">
          <mxGeometry width="160" relative="1" as="geometry">
            <mxPoint x="370" y="70" as="sourcePoint" />
            <mxPoint x="330" y="130" as="targetPoint" />
          </mxGeometry>
        </mxCell>
        <mxCell id="5dLB19G0BaNdC_t_m96H-12" value="Оказать услугу" style="ellipse;whiteSpace=wrap;html=1;" vertex="1" parent="1">
          <mxGeometry x="190" y="300" width="140" height="70" as="geometry" />
        </mxCell>
        <mxCell id="5dLB19G0BaNdC_t_m96H-13" value="" style="endArrow=none;endFill=0;endSize=12;html=1;rounded=0;exitX=0;exitY=0.5;exitDx=0;exitDy=0;" edge="1" parent="1" source="5dLB19G0BaNdC_t_m96H-12">
          <mxGeometry width="160" relative="1" as="geometry">
            <mxPoint x="210" y="334.9" as="sourcePoint" />
            <mxPoint x="120" y="335" as="targetPoint" />
          </mxGeometry>
        </mxCell>
        <mxCell id="5dLB19G0BaNdC_t_m96H-26" value="Получить заказ" style="ellipse;whiteSpace=wrap;html=1;" vertex="1" parent="1">
          <mxGeometry x="410" y="300" width="140" height="70" as="geometry" />
        </mxCell>
        <mxCell id="5dLB19G0BaNdC_t_m96H-27" value="«includes»" style="endArrow=open;endSize=12;dashed=1;html=1;rounded=0;exitX=1;exitY=0.5;exitDx=0;exitDy=0;entryX=0;entryY=0.5;entryDx=0;entryDy=0;" edge="1" parent="1" source="5dLB19G0BaNdC_t_m96H-12" target="5dLB19G0BaNdC_t_m96H-26">
          <mxGeometry width="160" relative="1" as="geometry">
            <mxPoint x="320" y="334.65999999999997" as="sourcePoint" />
            <mxPoint x="400" y="334.65999999999997" as="targetPoint" />
          </mxGeometry>
        </mxCell>
        <mxCell id="5dLB19G0BaNdC_t_m96H-28" value="Посетить клуб" style="ellipse;whiteSpace=wrap;html=1;" vertex="1" parent="1">
          <mxGeometry x="190" y="400" width="140" height="70" as="geometry" />
        </mxCell>
        <mxCell id="5dLB19G0BaNdC_t_m96H-29" value="Забронировать время" style="ellipse;whiteSpace=wrap;html=1;" vertex="1" parent="1">
          <mxGeometry x="190" y="540" width="140" height="70" as="geometry" />
        </mxCell>
        <mxCell id="5dLB19G0BaNdC_t_m96H-30" value="Заказать услугу" style="ellipse;whiteSpace=wrap;html=1;" vertex="1" parent="1">
          <mxGeometry x="410" y="400" width="140" height="70" as="geometry" />
        </mxCell>
        <mxCell id="5dLB19G0BaNdC_t_m96H-32" value="«extends»" style="endArrow=open;endSize=12;dashed=1;html=1;rounded=0;exitX=0.5;exitY=0;exitDx=0;exitDy=0;entryX=0.5;entryY=1;entryDx=0;entryDy=0;" edge="1" parent="1" source="5dLB19G0BaNdC_t_m96H-29" target="5dLB19G0BaNdC_t_m96H-28">
          <mxGeometry width="160" relative="1" as="geometry">
            <mxPoint x="329" y="530" as="sourcePoint" />
            <mxPoint x="329" y="470" as="targetPoint" />
          </mxGeometry>
        </mxCell>
        <mxCell id="5dLB19G0BaNdC_t_m96H-34" value="Предзаказать услугу" style="ellipse;whiteSpace=wrap;html=1;" vertex="1" parent="1">
          <mxGeometry x="410" y="540" width="140" height="70" as="geometry" />
        </mxCell>
        <mxCell id="5dLB19G0BaNdC_t_m96H-35" value="«extends»" style="endArrow=open;endSize=12;dashed=1;html=1;rounded=0;exitX=0.5;exitY=0;exitDx=0;exitDy=0;entryX=0.5;entryY=1;entryDx=0;entryDy=0;" edge="1" parent="1" source="5dLB19G0BaNdC_t_m96H-34" target="5dLB19G0BaNdC_t_m96H-30">
          <mxGeometry width="160" relative="1" as="geometry">
            <mxPoint x="540" y="530" as="sourcePoint" />
            <mxPoint x="540" y="480" as="targetPoint" />
          </mxGeometry>
        </mxCell>
        <mxCell id="5dLB19G0BaNdC_t_m96H-36" value="«extends»" style="endArrow=open;endSize=12;dashed=1;html=1;rounded=0;exitX=0;exitY=0.5;exitDx=0;exitDy=0;entryX=1;entryY=0.5;entryDx=0;entryDy=0;" edge="1" parent="1" source="5dLB19G0BaNdC_t_m96H-34" target="5dLB19G0BaNdC_t_m96H-29">
          <mxGeometry width="160" relative="1" as="geometry">
            <mxPoint x="380" y="630" as="sourcePoint" />
            <mxPoint x="380" y="580" as="targetPoint" />
          </mxGeometry>
        </mxCell>
        <mxCell id="5dLB19G0BaNdC_t_m96H-37" value="«extends»" style="endArrow=open;endSize=12;dashed=1;html=1;rounded=0;exitX=0;exitY=0.5;exitDx=0;exitDy=0;entryX=1;entryY=0.5;entryDx=0;entryDy=0;" edge="1" parent="1" source="5dLB19G0BaNdC_t_m96H-30" target="5dLB19G0BaNdC_t_m96H-28">
          <mxGeometry width="160" relative="1" as="geometry">
            <mxPoint x="414" y="460" as="sourcePoint" />
            <mxPoint x="334" y="460" as="targetPoint" />
          </mxGeometry>
        </mxCell>
        <mxCell id="5dLB19G0BaNdC_t_m96H-38" value="&lt;i&gt;Оплатить услугу&lt;/i&gt;" style="ellipse;whiteSpace=wrap;html=1;" vertex="1" parent="1">
          <mxGeometry x="640" y="400" width="140" height="70" as="geometry" />
        </mxCell>
        <mxCell id="5dLB19G0BaNdC_t_m96H-39" value="«includes»" style="endArrow=open;endSize=12;dashed=1;html=1;rounded=0;entryX=0;entryY=0.5;entryDx=0;entryDy=0;exitX=1;exitY=0.5;exitDx=0;exitDy=0;" edge="1" parent="1" target="5dLB19G0BaNdC_t_m96H-38" source="5dLB19G0BaNdC_t_m96H-30">
          <mxGeometry width="160" relative="1" as="geometry">
            <mxPoint x="570" y="450" as="sourcePoint" />
            <mxPoint x="640" y="460.28999999999996" as="targetPoint" />
          </mxGeometry>
        </mxCell>
        <mxCell id="5dLB19G0BaNdC_t_m96H-40" value="" style="endArrow=none;endSize=16;endFill=0;html=1;rounded=0;edgeStyle=orthogonalEdgeStyle;entryX=0.5;entryY=0;entryDx=0;entryDy=0;" edge="1" parent="1" target="5dLB19G0BaNdC_t_m96H-42">
          <mxGeometry width="160" relative="1" as="geometry">
            <mxPoint x="710" y="495" as="sourcePoint" />
            <mxPoint x="788" y="535" as="targetPoint" />
            <Array as="points">
              <mxPoint x="710" y="505" />
              <mxPoint x="788" y="505" />
            </Array>
          </mxGeometry>
        </mxCell>
        <mxCell id="5dLB19G0BaNdC_t_m96H-41" value="Оплатить услугу наличными" style="ellipse;whiteSpace=wrap;html=1;" vertex="1" parent="1">
          <mxGeometry x="563" y="540" width="140" height="70" as="geometry" />
        </mxCell>
        <mxCell id="5dLB19G0BaNdC_t_m96H-42" value="Оплатить услугу банковской картой" style="ellipse;whiteSpace=wrap;html=1;" vertex="1" parent="1">
          <mxGeometry x="718" y="540" width="140" height="70" as="geometry" />
        </mxCell>
        <mxCell id="5dLB19G0BaNdC_t_m96H-43" value="" style="endArrow=block;endSize=16;endFill=0;html=1;rounded=0;edgeStyle=orthogonalEdgeStyle;entryX=0.5;entryY=1;entryDx=0;entryDy=0;exitX=0.5;exitY=0;exitDx=0;exitDy=0;" edge="1" parent="1" source="5dLB19G0BaNdC_t_m96H-41" target="5dLB19G0BaNdC_t_m96H-38">
          <mxGeometry width="160" relative="1" as="geometry">
            <mxPoint x="810" y="540" as="sourcePoint" />
            <mxPoint x="710" y="500" as="targetPoint" />
          </mxGeometry>
        </mxCell>
        <mxCell id="5dLB19G0BaNdC_t_m96H-44" value="Участник" style="shape=umlActor;verticalLabelPosition=bottom;verticalAlign=top;html=1;" vertex="1" parent="1">
          <mxGeometry x="80" y="405" width="30" height="60" as="geometry" />
        </mxCell>
        <mxCell id="5dLB19G0BaNdC_t_m96H-45" value="" style="endArrow=none;endFill=0;endSize=12;html=1;rounded=0;exitX=0;exitY=0.5;exitDx=0;exitDy=0;" edge="1" parent="1" source="5dLB19G0BaNdC_t_m96H-28">
          <mxGeometry width="160" relative="1" as="geometry">
            <mxPoint x="190" y="435" as="sourcePoint" />
            <mxPoint x="120" y="435" as="targetPoint" />
          </mxGeometry>
        </mxCell>
      </root>
    </mxGraphModel>
  </diagram>
  <diagram id="tx9EkQ5O0RcG3MQefXwz" name="ДВИ 2">
    <mxGraphModel dx="1105" dy="584" grid="1" gridSize="10" guides="1" tooltips="1" connect="1" arrows="1" fold="1" page="1" pageScale="1" pageWidth="827" pageHeight="1169" math="0" shadow="0">
      <root>
        <mxCell id="0" />
        <mxCell id="1" parent="0" />
        <mxCell id="js4SYInrr6P5uiW3Z64r-1" value="Участник" style="shape=umlActor;verticalLabelPosition=bottom;verticalAlign=top;html=1;" vertex="1" parent="1">
          <mxGeometry x="80" y="615" width="30" height="60" as="geometry" />
        </mxCell>
        <mxCell id="js4SYInrr6P5uiW3Z64r-3" value="Администратор" style="shape=umlActor;verticalLabelPosition=bottom;verticalAlign=top;html=1;" vertex="1" parent="1">
          <mxGeometry x="80" y="120" width="30" height="60" as="geometry" />
        </mxCell>
        <mxCell id="js4SYInrr6P5uiW3Z64r-4" value="Администрировать&lt;div&gt;услуги и бонусы&lt;/div&gt;" style="ellipse;whiteSpace=wrap;html=1;" vertex="1" parent="1">
          <mxGeometry x="190" y="115" width="140" height="70" as="geometry" />
        </mxCell>
        <mxCell id="js4SYInrr6P5uiW3Z64r-5" value="" style="endArrow=none;endFill=0;endSize=12;html=1;rounded=0;entryX=0;entryY=0.5;entryDx=0;entryDy=0;" edge="1" parent="1" target="js4SYInrr6P5uiW3Z64r-4">
          <mxGeometry width="160" relative="1" as="geometry">
            <mxPoint x="120" y="149.57" as="sourcePoint" />
            <mxPoint x="200" y="180" as="targetPoint" />
          </mxGeometry>
        </mxCell>
        <mxCell id="js4SYInrr6P5uiW3Z64r-6" value="&lt;div&gt;&lt;span style=&quot;font-size: 11px; text-wrap: nowrap; background-color: rgb(255, 255, 255);&quot;&gt;«CRUD»&lt;/span&gt;&lt;/div&gt;&lt;div&gt;Услуга&lt;/div&gt;" style="ellipse;whiteSpace=wrap;html=1;" vertex="1" parent="1">
          <mxGeometry x="410" y="30" width="140" height="70" as="geometry" />
        </mxCell>
        <mxCell id="js4SYInrr6P5uiW3Z64r-7" value="&lt;div&gt;&lt;span style=&quot;font-size: 11px; text-wrap: nowrap; background-color: rgb(255, 255, 255);&quot;&gt;«CRUD»&lt;/span&gt;&lt;/div&gt;&lt;div&gt;Бонус&lt;/div&gt;" style="ellipse;whiteSpace=wrap;html=1;" vertex="1" parent="1">
          <mxGeometry x="410" y="115" width="140" height="70" as="geometry" />
        </mxCell>
        <mxCell id="js4SYInrr6P5uiW3Z64r-8" value="Назначать бонус участнику" style="ellipse;whiteSpace=wrap;html=1;" vertex="1" parent="1">
          <mxGeometry x="410" y="200" width="140" height="70" as="geometry" />
        </mxCell>
        <mxCell id="js4SYInrr6P5uiW3Z64r-9" value="«extends»" style="endArrow=open;endSize=12;dashed=1;html=1;rounded=0;entryX=1;entryY=1;entryDx=0;entryDy=0;exitX=0;exitY=0.5;exitDx=0;exitDy=0;" edge="1" parent="1" source="js4SYInrr6P5uiW3Z64r-8" target="js4SYInrr6P5uiW3Z64r-4">
          <mxGeometry width="160" relative="1" as="geometry">
            <mxPoint x="400.5" y="230" as="sourcePoint" />
            <mxPoint x="289.9974746830567" y="290.25126265847155" as="targetPoint" />
          </mxGeometry>
        </mxCell>
        <mxCell id="js4SYInrr6P5uiW3Z64r-10" value="«extends»" style="endArrow=open;endSize=12;dashed=1;html=1;rounded=0;exitX=0;exitY=0.5;exitDx=0;exitDy=0;entryX=1;entryY=0.5;entryDx=0;entryDy=0;" edge="1" parent="1" source="js4SYInrr6P5uiW3Z64r-7" target="js4SYInrr6P5uiW3Z64r-4">
          <mxGeometry width="160" relative="1" as="geometry">
            <mxPoint x="520" y="160" as="sourcePoint" />
            <mxPoint x="360" y="160" as="targetPoint" />
          </mxGeometry>
        </mxCell>
        <mxCell id="js4SYInrr6P5uiW3Z64r-11" value="«extends»" style="endArrow=open;endSize=12;dashed=1;html=1;rounded=0;exitX=0;exitY=0.5;exitDx=0;exitDy=0;entryX=0.938;entryY=0.256;entryDx=0;entryDy=0;entryPerimeter=0;" edge="1" parent="1" source="js4SYInrr6P5uiW3Z64r-6" target="js4SYInrr6P5uiW3Z64r-4">
          <mxGeometry width="160" relative="1" as="geometry">
            <mxPoint x="370" y="70" as="sourcePoint" />
            <mxPoint x="330" y="130" as="targetPoint" />
          </mxGeometry>
        </mxCell>
        <mxCell id="js4SYInrr6P5uiW3Z64r-14" value="Посетить клуб" style="ellipse;whiteSpace=wrap;html=1;" vertex="1" parent="1">
          <mxGeometry x="190" y="610" width="140" height="70" as="geometry" />
        </mxCell>
        <mxCell id="js4SYInrr6P5uiW3Z64r-15" value="" style="endArrow=none;endFill=0;endSize=12;html=1;rounded=0;exitX=0;exitY=0.5;exitDx=0;exitDy=0;" edge="1" parent="1" source="js4SYInrr6P5uiW3Z64r-14">
          <mxGeometry width="160" relative="1" as="geometry">
            <mxPoint x="210" y="644.5" as="sourcePoint" />
            <mxPoint x="120" y="645" as="targetPoint" />
          </mxGeometry>
        </mxCell>
        <mxCell id="js4SYInrr6P5uiW3Z64r-16" value="Заказать услугу" style="ellipse;whiteSpace=wrap;html=1;" vertex="1" parent="1">
          <mxGeometry x="410" y="610" width="140" height="70" as="geometry" />
        </mxCell>
        <mxCell id="js4SYInrr6P5uiW3Z64r-17" value="«extends»" style="endArrow=open;endSize=12;dashed=1;html=1;rounded=0;exitX=0;exitY=0.5;exitDx=0;exitDy=0;entryX=0;entryY=0.5;entryDx=0;entryDy=0;" edge="1" parent="1" source="js4SYInrr6P5uiW3Z64r-16">
          <mxGeometry width="160" relative="1" as="geometry">
            <mxPoint x="390" y="680" as="sourcePoint" />
            <mxPoint x="330" y="644.71" as="targetPoint" />
          </mxGeometry>
        </mxCell>
        <mxCell id="js4SYInrr6P5uiW3Z64r-18" value="&lt;i&gt;Оплатить услугу&lt;/i&gt;" style="ellipse;whiteSpace=wrap;html=1;" vertex="1" parent="1">
          <mxGeometry x="640" y="610" width="140" height="70" as="geometry" />
        </mxCell>
        <mxCell id="js4SYInrr6P5uiW3Z64r-19" value="«includes»" style="endArrow=open;endSize=12;dashed=1;html=1;rounded=0;exitX=1;exitY=0.5;exitDx=0;exitDy=0;entryX=0;entryY=0.5;entryDx=0;entryDy=0;" edge="1" parent="1" source="js4SYInrr6P5uiW3Z64r-16" target="js4SYInrr6P5uiW3Z64r-18">
          <mxGeometry width="160" relative="1" as="geometry">
            <mxPoint x="550" y="670" as="sourcePoint" />
            <mxPoint x="640" y="670.29" as="targetPoint" />
          </mxGeometry>
        </mxCell>
        <mxCell id="js4SYInrr6P5uiW3Z64r-20" value="" style="endArrow=none;endSize=16;endFill=0;html=1;rounded=0;edgeStyle=orthogonalEdgeStyle;" edge="1" parent="1" target="js4SYInrr6P5uiW3Z64r-22">
          <mxGeometry width="160" relative="1" as="geometry">
            <mxPoint x="710" y="710" as="sourcePoint" />
            <mxPoint x="790" y="860" as="targetPoint" />
          </mxGeometry>
        </mxCell>
        <mxCell id="js4SYInrr6P5uiW3Z64r-21" value="Оплатить услугу наличными" style="ellipse;whiteSpace=wrap;html=1;" vertex="1" parent="1">
          <mxGeometry x="563" y="740" width="140" height="70" as="geometry" />
        </mxCell>
        <mxCell id="js4SYInrr6P5uiW3Z64r-22" value="Оплатить услугу банковской картой" style="ellipse;whiteSpace=wrap;html=1;" vertex="1" parent="1">
          <mxGeometry x="718" y="740" width="140" height="70" as="geometry" />
        </mxCell>
        <mxCell id="js4SYInrr6P5uiW3Z64r-23" value="" style="endArrow=block;endSize=16;endFill=0;html=1;rounded=0;edgeStyle=orthogonalEdgeStyle;entryX=0.5;entryY=1;entryDx=0;entryDy=0;exitX=0.5;exitY=0;exitDx=0;exitDy=0;" edge="1" parent="1" source="js4SYInrr6P5uiW3Z64r-21" target="js4SYInrr6P5uiW3Z64r-18">
          <mxGeometry width="160" relative="1" as="geometry">
            <mxPoint x="810" y="750" as="sourcePoint" />
            <mxPoint x="710" y="710" as="targetPoint" />
          </mxGeometry>
        </mxCell>
        <mxCell id="js4SYInrr6P5uiW3Z64r-24" value="Применить бонус" style="ellipse;whiteSpace=wrap;html=1;" vertex="1" parent="1">
          <mxGeometry x="410" y="740" width="140" height="70" as="geometry" />
        </mxCell>
        <mxCell id="js4SYInrr6P5uiW3Z64r-25" value="«extends»" style="endArrow=open;endSize=12;dashed=1;html=1;rounded=0;exitX=0.5;exitY=0;exitDx=0;exitDy=0;entryX=0.5;entryY=1;entryDx=0;entryDy=0;" edge="1" parent="1" source="js4SYInrr6P5uiW3Z64r-24" target="js4SYInrr6P5uiW3Z64r-16">
          <mxGeometry width="160" relative="1" as="geometry">
            <mxPoint x="360" y="739.11" as="sourcePoint" />
            <mxPoint x="270" y="738.82" as="targetPoint" />
          </mxGeometry>
        </mxCell>
        <mxCell id="js4SYInrr6P5uiW3Z64r-28" value="Персонал" style="shape=umlActor;verticalLabelPosition=bottom;verticalAlign=top;html=1;" vertex="1" parent="1">
          <mxGeometry x="80" y="365" width="30" height="60" as="geometry" />
        </mxCell>
        <mxCell id="js4SYInrr6P5uiW3Z64r-29" value="Оказать услугу" style="ellipse;whiteSpace=wrap;html=1;" vertex="1" parent="1">
          <mxGeometry x="190" y="360" width="140" height="70" as="geometry" />
        </mxCell>
        <mxCell id="js4SYInrr6P5uiW3Z64r-30" value="" style="endArrow=none;endFill=0;endSize=12;html=1;rounded=0;exitX=0;exitY=0.5;exitDx=0;exitDy=0;" edge="1" parent="1" source="js4SYInrr6P5uiW3Z64r-29">
          <mxGeometry width="160" relative="1" as="geometry">
            <mxPoint x="210" y="394.9" as="sourcePoint" />
            <mxPoint x="120" y="395" as="targetPoint" />
          </mxGeometry>
        </mxCell>
        <mxCell id="js4SYInrr6P5uiW3Z64r-31" value="Получить заказ" style="ellipse;whiteSpace=wrap;html=1;" vertex="1" parent="1">
          <mxGeometry x="410" y="360" width="140" height="70" as="geometry" />
        </mxCell>
        <mxCell id="js4SYInrr6P5uiW3Z64r-32" value="«includes»" style="endArrow=open;endSize=12;dashed=1;html=1;rounded=0;exitX=1;exitY=0.5;exitDx=0;exitDy=0;entryX=0;entryY=0.5;entryDx=0;entryDy=0;" edge="1" parent="1" source="js4SYInrr6P5uiW3Z64r-29" target="js4SYInrr6P5uiW3Z64r-31">
          <mxGeometry width="160" relative="1" as="geometry">
            <mxPoint x="320" y="394.65999999999997" as="sourcePoint" />
            <mxPoint x="400" y="394.65999999999997" as="targetPoint" />
          </mxGeometry>
        </mxCell>
        <mxCell id="t5X7UeXox1HMTsAytG0W-1" value="Просмотреть&amp;nbsp;&lt;div&gt;оказанные услуги&lt;/div&gt;" style="ellipse;whiteSpace=wrap;html=1;" vertex="1" parent="1">
          <mxGeometry x="190" y="480" width="140" height="70" as="geometry" />
        </mxCell>
        <mxCell id="t5X7UeXox1HMTsAytG0W-2" value="" style="endArrow=none;endFill=0;endSize=12;html=1;rounded=0;exitX=0;exitY=0;exitDx=0;exitDy=0;" edge="1" parent="1" source="t5X7UeXox1HMTsAytG0W-1">
          <mxGeometry width="160" relative="1" as="geometry">
            <mxPoint x="200" y="460" as="sourcePoint" />
            <mxPoint x="120" y="410" as="targetPoint" />
          </mxGeometry>
        </mxCell>
        <mxCell id="iG8XrdV-rJGQ-3Cc-ZKq-1" value="&lt;div&gt;&lt;span style=&quot;font-size: 11px; text-wrap: nowrap; background-color: rgb(255, 255, 255);&quot;&gt;«CRUD»&lt;/span&gt;&lt;/div&gt;&lt;div&gt;Участник&lt;/div&gt;" style="ellipse;whiteSpace=wrap;html=1;" vertex="1" parent="1">
          <mxGeometry x="190" y="240" width="140" height="70" as="geometry" />
        </mxCell>
        <mxCell id="iG8XrdV-rJGQ-3Cc-ZKq-2" value="" style="endArrow=none;endFill=0;endSize=12;html=1;rounded=0;entryX=0;entryY=0;entryDx=0;entryDy=0;" edge="1" parent="1" target="iG8XrdV-rJGQ-3Cc-ZKq-1">
          <mxGeometry width="160" relative="1" as="geometry">
            <mxPoint x="120" y="160" as="sourcePoint" />
            <mxPoint x="200" y="160" as="targetPoint" />
          </mxGeometry>
        </mxCell>
        <mxCell id="RcDuUrkjhJfODn1l-6XM-1" value="&lt;div&gt;&lt;span style=&quot;font-size: 11px; text-wrap: nowrap; background-color: rgb(255, 255, 255);&quot;&gt;«CRUD»&lt;/span&gt;&lt;/div&gt;&lt;div&gt;Персонал&lt;/div&gt;" style="ellipse;whiteSpace=wrap;html=1;" vertex="1" parent="1">
          <mxGeometry x="190" width="140" height="70" as="geometry" />
        </mxCell>
        <mxCell id="RcDuUrkjhJfODn1l-6XM-2" value="" style="endArrow=none;endFill=0;endSize=12;html=1;rounded=0;entryX=0;entryY=1;entryDx=0;entryDy=0;" edge="1" parent="1" target="RcDuUrkjhJfODn1l-6XM-1">
          <mxGeometry width="160" relative="1" as="geometry">
            <mxPoint x="120" y="140" as="sourcePoint" />
            <mxPoint x="221" y="260" as="targetPoint" />
          </mxGeometry>
        </mxCell>
      </root>
    </mxGraphModel>
  </diagram>
  <diagram name="ДВИ Клуб" id="vjeYdK95llp3s3CzS4TK">
    <mxGraphModel dx="368" dy="195" grid="1" gridSize="10" guides="1" tooltips="1" connect="1" arrows="1" fold="1" page="1" pageScale="1" pageWidth="827" pageHeight="1169" math="0" shadow="0">
      <root>
        <mxCell id="0" />
        <mxCell id="1" parent="0" />
        <mxCell id="6_A9G_Uj2HKQVyIfKb-2-1" value="Участник" style="shape=umlActor;verticalLabelPosition=bottom;verticalAlign=top;html=1;" vertex="1" parent="1">
          <mxGeometry x="80" y="535" width="30" height="60" as="geometry" />
        </mxCell>
        <mxCell id="6_A9G_Uj2HKQVyIfKb-2-3" value="Персонал" style="shape=umlActor;verticalLabelPosition=bottom;verticalAlign=top;html=1;" vertex="1" parent="1">
          <mxGeometry x="80" y="305" width="30" height="60" as="geometry" />
        </mxCell>
        <mxCell id="6_A9G_Uj2HKQVyIfKb-2-4" value="Администратор" style="shape=umlActor;verticalLabelPosition=bottom;verticalAlign=top;html=1;" vertex="1" parent="1">
          <mxGeometry x="80" y="120" width="30" height="60" as="geometry" />
        </mxCell>
        <mxCell id="6_A9G_Uj2HKQVyIfKb-2-6" value="Администрировать&lt;div&gt;услуги и бонусы&lt;/div&gt;" style="ellipse;whiteSpace=wrap;html=1;" vertex="1" parent="1">
          <mxGeometry x="190" y="115" width="140" height="70" as="geometry" />
        </mxCell>
        <mxCell id="6_A9G_Uj2HKQVyIfKb-2-7" value="" style="endArrow=none;endFill=0;endSize=12;html=1;rounded=0;entryX=0;entryY=0.5;entryDx=0;entryDy=0;" edge="1" parent="1" target="6_A9G_Uj2HKQVyIfKb-2-6">
          <mxGeometry width="160" relative="1" as="geometry">
            <mxPoint x="120" y="149.57" as="sourcePoint" />
            <mxPoint x="200" y="180" as="targetPoint" />
          </mxGeometry>
        </mxCell>
        <mxCell id="6_A9G_Uj2HKQVyIfKb-2-8" value="CRUD&lt;div&gt;услуги&lt;/div&gt;" style="ellipse;whiteSpace=wrap;html=1;" vertex="1" parent="1">
          <mxGeometry x="410" y="30" width="140" height="70" as="geometry" />
        </mxCell>
        <mxCell id="6_A9G_Uj2HKQVyIfKb-2-9" value="CRUD&lt;div&gt;бонусы&lt;/div&gt;" style="ellipse;whiteSpace=wrap;html=1;" vertex="1" parent="1">
          <mxGeometry x="410" y="115" width="140" height="70" as="geometry" />
        </mxCell>
        <mxCell id="6_A9G_Uj2HKQVyIfKb-2-10" value="Назначать бонус участнику" style="ellipse;whiteSpace=wrap;html=1;" vertex="1" parent="1">
          <mxGeometry x="410" y="200" width="140" height="70" as="geometry" />
        </mxCell>
        <mxCell id="6_A9G_Uj2HKQVyIfKb-2-11" value="«extends»" style="endArrow=open;endSize=12;dashed=1;html=1;rounded=0;entryX=1;entryY=1;entryDx=0;entryDy=0;exitX=0;exitY=0.5;exitDx=0;exitDy=0;" edge="1" parent="1" source="6_A9G_Uj2HKQVyIfKb-2-10" target="6_A9G_Uj2HKQVyIfKb-2-6">
          <mxGeometry width="160" relative="1" as="geometry">
            <mxPoint x="400.5" y="230" as="sourcePoint" />
            <mxPoint x="289.9974746830567" y="290.25126265847155" as="targetPoint" />
          </mxGeometry>
        </mxCell>
        <mxCell id="6_A9G_Uj2HKQVyIfKb-2-12" value="«extends»" style="endArrow=open;endSize=12;dashed=1;html=1;rounded=0;exitX=0;exitY=0.5;exitDx=0;exitDy=0;entryX=1;entryY=0.5;entryDx=0;entryDy=0;" edge="1" parent="1" source="6_A9G_Uj2HKQVyIfKb-2-9" target="6_A9G_Uj2HKQVyIfKb-2-6">
          <mxGeometry width="160" relative="1" as="geometry">
            <mxPoint x="520" y="160" as="sourcePoint" />
            <mxPoint x="360" y="160" as="targetPoint" />
          </mxGeometry>
        </mxCell>
        <mxCell id="6_A9G_Uj2HKQVyIfKb-2-13" value="«extends»" style="endArrow=open;endSize=12;dashed=1;html=1;rounded=0;exitX=0;exitY=0.5;exitDx=0;exitDy=0;entryX=0.938;entryY=0.256;entryDx=0;entryDy=0;entryPerimeter=0;" edge="1" parent="1" source="6_A9G_Uj2HKQVyIfKb-2-8" target="6_A9G_Uj2HKQVyIfKb-2-6">
          <mxGeometry width="160" relative="1" as="geometry">
            <mxPoint x="370" y="70" as="sourcePoint" />
            <mxPoint x="330" y="130" as="targetPoint" />
          </mxGeometry>
        </mxCell>
        <mxCell id="6_A9G_Uj2HKQVyIfKb-2-14" value="Оказать услугу" style="ellipse;whiteSpace=wrap;html=1;" vertex="1" parent="1">
          <mxGeometry x="190" y="300" width="140" height="70" as="geometry" />
        </mxCell>
        <mxCell id="6_A9G_Uj2HKQVyIfKb-2-15" value="" style="endArrow=none;endFill=0;endSize=12;html=1;rounded=0;exitX=0;exitY=0.5;exitDx=0;exitDy=0;" edge="1" parent="1" source="6_A9G_Uj2HKQVyIfKb-2-14">
          <mxGeometry width="160" relative="1" as="geometry">
            <mxPoint x="210" y="334.9" as="sourcePoint" />
            <mxPoint x="120" y="335" as="targetPoint" />
          </mxGeometry>
        </mxCell>
        <mxCell id="6_A9G_Uj2HKQVyIfKb-2-18" value="Посетить клуб" style="ellipse;whiteSpace=wrap;html=1;" vertex="1" parent="1">
          <mxGeometry x="190" y="530" width="140" height="70" as="geometry" />
        </mxCell>
        <mxCell id="6_A9G_Uj2HKQVyIfKb-2-19" value="" style="endArrow=none;endFill=0;endSize=12;html=1;rounded=0;exitX=0;exitY=0.5;exitDx=0;exitDy=0;" edge="1" parent="1" source="6_A9G_Uj2HKQVyIfKb-2-18">
          <mxGeometry width="160" relative="1" as="geometry">
            <mxPoint x="210" y="564.5" as="sourcePoint" />
            <mxPoint x="120" y="565" as="targetPoint" />
          </mxGeometry>
        </mxCell>
        <mxCell id="6_A9G_Uj2HKQVyIfKb-2-20" value="Заказать услугу" style="ellipse;whiteSpace=wrap;html=1;" vertex="1" parent="1">
          <mxGeometry x="410" y="530" width="140" height="70" as="geometry" />
        </mxCell>
        <mxCell id="6_A9G_Uj2HKQVyIfKb-2-21" value="«extends»" style="endArrow=open;endSize=12;dashed=1;html=1;rounded=0;exitX=0;exitY=0.5;exitDx=0;exitDy=0;entryX=0;entryY=0.5;entryDx=0;entryDy=0;" edge="1" parent="1" source="6_A9G_Uj2HKQVyIfKb-2-20">
          <mxGeometry width="160" relative="1" as="geometry">
            <mxPoint x="390" y="600" as="sourcePoint" />
            <mxPoint x="330" y="564.71" as="targetPoint" />
          </mxGeometry>
        </mxCell>
        <mxCell id="6_A9G_Uj2HKQVyIfKb-2-22" value="&lt;i&gt;Оплатить услугу&lt;/i&gt;" style="ellipse;whiteSpace=wrap;html=1;" vertex="1" parent="1">
          <mxGeometry x="640" y="530" width="140" height="70" as="geometry" />
        </mxCell>
        <mxCell id="6_A9G_Uj2HKQVyIfKb-2-23" value="«includes»" style="endArrow=open;endSize=12;dashed=1;html=1;rounded=0;exitX=1;exitY=0.5;exitDx=0;exitDy=0;entryX=0;entryY=0.5;entryDx=0;entryDy=0;" edge="1" parent="1" source="6_A9G_Uj2HKQVyIfKb-2-20" target="6_A9G_Uj2HKQVyIfKb-2-22">
          <mxGeometry width="160" relative="1" as="geometry">
            <mxPoint x="550" y="590" as="sourcePoint" />
            <mxPoint x="640" y="590.29" as="targetPoint" />
          </mxGeometry>
        </mxCell>
        <mxCell id="6_A9G_Uj2HKQVyIfKb-2-24" value="" style="endArrow=none;endSize=16;endFill=0;html=1;rounded=0;edgeStyle=orthogonalEdgeStyle;" edge="1" parent="1" target="6_A9G_Uj2HKQVyIfKb-2-26">
          <mxGeometry width="160" relative="1" as="geometry">
            <mxPoint x="710" y="630" as="sourcePoint" />
            <mxPoint x="790" y="780" as="targetPoint" />
          </mxGeometry>
        </mxCell>
        <mxCell id="6_A9G_Uj2HKQVyIfKb-2-25" value="Оплатить услугу наличными" style="ellipse;whiteSpace=wrap;html=1;" vertex="1" parent="1">
          <mxGeometry x="563" y="660" width="140" height="70" as="geometry" />
        </mxCell>
        <mxCell id="6_A9G_Uj2HKQVyIfKb-2-26" value="Оплатить услугу банковской картой" style="ellipse;whiteSpace=wrap;html=1;" vertex="1" parent="1">
          <mxGeometry x="718" y="660" width="140" height="70" as="geometry" />
        </mxCell>
        <mxCell id="6_A9G_Uj2HKQVyIfKb-2-28" value="" style="endArrow=block;endSize=16;endFill=0;html=1;rounded=0;edgeStyle=orthogonalEdgeStyle;entryX=0.5;entryY=1;entryDx=0;entryDy=0;exitX=0.5;exitY=0;exitDx=0;exitDy=0;" edge="1" parent="1" source="6_A9G_Uj2HKQVyIfKb-2-25" target="6_A9G_Uj2HKQVyIfKb-2-22">
          <mxGeometry width="160" relative="1" as="geometry">
            <mxPoint x="810" y="670" as="sourcePoint" />
            <mxPoint x="710" y="630" as="targetPoint" />
          </mxGeometry>
        </mxCell>
        <mxCell id="6_A9G_Uj2HKQVyIfKb-2-29" value="Применить бонус" style="ellipse;whiteSpace=wrap;html=1;" vertex="1" parent="1">
          <mxGeometry x="410" y="660" width="140" height="70" as="geometry" />
        </mxCell>
        <mxCell id="6_A9G_Uj2HKQVyIfKb-2-30" value="«extends»" style="endArrow=open;endSize=12;dashed=1;html=1;rounded=0;exitX=0.5;exitY=0;exitDx=0;exitDy=0;entryX=0.5;entryY=1;entryDx=0;entryDy=0;" edge="1" parent="1" source="6_A9G_Uj2HKQVyIfKb-2-29" target="6_A9G_Uj2HKQVyIfKb-2-20">
          <mxGeometry width="160" relative="1" as="geometry">
            <mxPoint x="360" y="659.11" as="sourcePoint" />
            <mxPoint x="270" y="658.82" as="targetPoint" />
          </mxGeometry>
        </mxCell>
        <mxCell id="6_A9G_Uj2HKQVyIfKb-2-31" value="Получить заказ" style="ellipse;whiteSpace=wrap;html=1;" vertex="1" parent="1">
          <mxGeometry x="410" y="300" width="140" height="70" as="geometry" />
        </mxCell>
        <mxCell id="6_A9G_Uj2HKQVyIfKb-2-32" value="«includes»" style="endArrow=open;endSize=12;dashed=1;html=1;rounded=0;exitX=1;exitY=0.5;exitDx=0;exitDy=0;entryX=0;entryY=0.5;entryDx=0;entryDy=0;" edge="1" parent="1" source="6_A9G_Uj2HKQVyIfKb-2-14" target="6_A9G_Uj2HKQVyIfKb-2-31">
          <mxGeometry width="160" relative="1" as="geometry">
            <mxPoint x="320" y="334.65999999999997" as="sourcePoint" />
            <mxPoint x="400" y="334.65999999999997" as="targetPoint" />
          </mxGeometry>
        </mxCell>
        <mxCell id="avKyrmOszJKuxoVseB-k-1" value="Посмотреть историю посещений" style="ellipse;whiteSpace=wrap;html=1;" vertex="1" parent="1">
          <mxGeometry x="190" y="660" width="140" height="70" as="geometry" />
        </mxCell>
        <mxCell id="avKyrmOszJKuxoVseB-k-2" value="" style="endArrow=none;endFill=0;endSize=12;html=1;rounded=0;exitX=0;exitY=0;exitDx=0;exitDy=0;" edge="1" parent="1" source="avKyrmOszJKuxoVseB-k-1">
          <mxGeometry width="160" relative="1" as="geometry">
            <mxPoint x="190" y="650" as="sourcePoint" />
            <mxPoint x="120" y="580" as="targetPoint" />
          </mxGeometry>
        </mxCell>
        <mxCell id="avKyrmOszJKuxoVseB-k-3" value="Посмотреть историю заказов" style="ellipse;whiteSpace=wrap;html=1;" vertex="1" parent="1">
          <mxGeometry x="410" y="790" width="140" height="70" as="geometry" />
        </mxCell>
        <mxCell id="avKyrmOszJKuxoVseB-k-5" value="«extends»" style="endArrow=open;endSize=12;dashed=1;html=1;rounded=0;exitX=0;exitY=0;exitDx=0;exitDy=0;" edge="1" parent="1" source="avKyrmOszJKuxoVseB-k-3" target="avKyrmOszJKuxoVseB-k-1">
          <mxGeometry width="160" relative="1" as="geometry">
            <mxPoint x="450" y="760.29" as="sourcePoint" />
            <mxPoint x="370" y="760" as="targetPoint" />
          </mxGeometry>
        </mxCell>
        <mxCell id="DDia5toTi1PDmbs1uYjj-1" value="Подтвердить оплату наличными" style="ellipse;whiteSpace=wrap;html=1;" vertex="1" parent="1">
          <mxGeometry x="190" y="410" width="140" height="70" as="geometry" />
        </mxCell>
        <mxCell id="DDia5toTi1PDmbs1uYjj-2" value="" style="endArrow=none;endFill=0;endSize=12;html=1;rounded=0;exitX=0;exitY=0;exitDx=0;exitDy=0;" edge="1" parent="1" source="DDia5toTi1PDmbs1uYjj-1">
          <mxGeometry width="160" relative="1" as="geometry">
            <mxPoint x="200" y="345" as="sourcePoint" />
            <mxPoint x="120" y="350" as="targetPoint" />
          </mxGeometry>
        </mxCell>
      </root>
    </mxGraphModel>
  </diagram>
</mxfile>
